<svg width="16" height="16" viewBox="0 0 16 16" fill="none" xmlns="http://www.w3.org/2000/svg">
<path fill-rule="evenodd" clip-rule="evenodd" d="M5.64789 12.4876C5.19728 12.037 5.19728 11.3064 5.64789 10.8558L12.9941 3.5096C13.4447 3.05899 14.1753 3.059 14.6259 3.5096C15.0765 3.9602 15.0765 4.69078 14.6259 5.14138L7.27967 12.4876C6.82907 12.9382 6.09849 12.9382 5.64789 12.4876Z" fill="#2D3436"/>
<path fill-rule="evenodd" clip-rule="evenodd" d="M7.27517 12.4887C6.82456 12.9393 6.09399 12.9393 5.64338 12.4887L1.97186 8.81719C1.52126 8.36658 1.52126 7.63601 1.97186 7.1854C2.42247 6.7348 3.15304 6.7348 3.60365 7.1854L7.27517 10.8569C7.72577 11.3075 7.72577 12.0381 7.27517 12.4887Z" fill="#2D3436"/>
</svg>
